<svg xmlns="http://www.w3.org/2000/svg" viewBox="0 0 960 600" role="img" aria-label="Industrial motor procurement case">
  <rect width="960" height="600" fill="#f5f7fb"/>
  <rect x="80" y="120" width="520" height="300" rx="24" fill="#dfe7f3" stroke="#6b7f99" stroke-width="6"/>
  <rect x="160" y="170" width="340" height="210" rx="18" fill="#72849c"/>
  <g fill="#f5f7fb">
    <rect x="190" y="205" width="280" height="18" rx="9"/>
    <rect x="190" y="250" width="280" height="18" rx="9"/>
    <rect x="190" y="295" width="280" height="18" rx="9"/>
    <rect x="190" y="340" width="280" height="18" rx="9"/>
  </g>
  <circle cx="620" cy="270" r="118" fill="#1f2937"/>
  <circle cx="620" cy="270" r="74" fill="#9ca3af"/>
  <circle cx="620" cy="270" r="34" fill="#e5e7eb"/>
  <rect x="720" y="248" width="150" height="44" rx="22" fill="#9ca3af"/>
  <rect x="250" y="420" width="120" height="48" rx="10" fill="#111827"/>
  <rect x="520" y="420" width="120" height="48" rx="10" fill="#111827"/>
  <path d="M120 505h720" stroke="#cbd5e1" stroke-width="8" stroke-linecap="round"/>
  <text x="90" y="82" font-family="Arial, sans-serif" font-size="34" font-weight="700" fill="#111827">5.5 kW IE3 Motor Sourcing</text>
  <text x="92" y="535" font-family="Arial, sans-serif" font-size="22" fill="#475569">380 V · IP55 · CCC · 30-day first delivery</text>
</svg>
