<svg xmlns="http://www.w3.org/2000/svg" viewBox="0 0 960 600" role="img" aria-label="Dangerous goods procurement case">
  <rect width="960" height="600" fill="#fff7ed"/>
  <rect x="90" y="110" width="780" height="390" rx="28" fill="#fed7aa" stroke="#c2410c" stroke-width="6"/>
  <g transform="translate(160 160)">
    <rect x="0" y="0" width="170" height="280" rx="22" fill="#f97316"/>
    <rect x="26" y="34" width="118" height="110" rx="10" fill="#ffedd5"/>
    <path d="M85 54l48 84H37z" fill="#111827"/>
    <path d="M85 75l-22 42h44z" fill="#facc15"/>
    <text x="85" y="130" text-anchor="middle" font-family="Arial, sans-serif" font-size="18" font-weight="700" fill="#111827">FLAMMABLE</text>
  </g>
  <g transform="translate(395 160)">
    <rect x="0" y="0" width="170" height="280" rx="22" fill="#ea580c"/>
    <rect x="26" y="34" width="118" height="110" rx="10" fill="#fff7ed"/>
    <path d="M85 60c22 25 32 46 32 64 0 24-16 42-32 42s-32-18-32-42c0-18 10-39 32-64z" fill="#dc2626"/>
    <text x="85" y="132" text-anchor="middle" font-family="Arial, sans-serif" font-size="18" font-weight="700" fill="#111827">SDS</text>
  </g>
  <g transform="translate(630 160)">
    <rect x="0" y="0" width="170" height="280" rx="22" fill="#fb923c"/>
    <rect x="26" y="34" width="118" height="110" rx="10" fill="#fff7ed"/>
    <path d="M50 126h70M62 74h46M85 74v52" stroke="#111827" stroke-width="14" stroke-linecap="round"/>
    <text x="85" y="132" text-anchor="middle" font-family="Arial, sans-serif" font-size="18" font-weight="700" fill="#111827">UN</text>
  </g>
  <text x="90" y="78" font-family="Arial, sans-serif" font-size="34" font-weight="700" fill="#7c2d12">Hazardous Chemical Sourcing</text>
  <text x="92" y="548" font-family="Arial, sans-serif" font-size="22" fill="#9a3412">IPA · SDS · COA · Hazmat Transport · UN Packaging</text>
</svg>
